PathFileType	4	(X/Y/Z)	Kaydara	
DataRate	CameraRate	NumFrames	NumMarkers	Units	OrigDataRate	OrigDataStartFrame	OrigNumFrames	
120.00	120.00	4	72	mm	120.00	229	261	
Frame#	Time	Hips			RightUpLeg			RightLeg			RightFoot			RightFoot_End			LeftUpLeg			LeftLeg			LeftFoot			LeftFoot_End			Spine			Spine1			Spine2			Spine3			Neck			Head			Head_End			RightShoulder			RightArm			RightForeArm			RightHand			RightHandThumb1			RightHandThumb2			RightHandThumb3			RightHandThumb3_End			RightInHandIndex			RightHandIndex1			RightHandIndex2			RightHandIndex3			RightHandIndex3_End			RightInHandMiddle			RightHandMiddle1			RightHandMiddle2			RightHandMiddle3			RightHandMiddle3_End			RightInHandRing			RightHandRing1			RightHandRing2			RightHandRing3			RightHandRing3_End			RightInHandPinky			RightHandPinky1			RightHandPinky2			RightHandPinky3			RightHandPinky3_End			LeftShoulder			LeftArm			LeftForeArm			LeftHand			LeftHandThumb1			LeftHandThumb2			LeftHandThumb3			LeftHandThumb3_End			LeftInHandIndex			LeftHandIndex1			LeftHandIndex2			LeftHandIndex3			LeftHandIndex3_End			LeftInHandMiddle			LeftHandMiddle1			LeftHandMiddle2			LeftHandMiddle3			LeftHandMiddle3_End			LeftInHandRing			LeftHandRing1			LeftHandRing2			LeftHandRing3			LeftHandRing3_End			LeftInHandPinky			LeftHandPinky1			LeftHandPinky2			LeftHandPinky3			LeftHandPinky3_End			
		X1	Y1	Z1	X2	Y2	Z2	X3	Y3	Z3	X4	Y4	Z4	X5	Y5	Z5	X6	Y6	Z6	X7	Y7	Z7	X8	Y8	Z8	X9	Y9	Z9	X10	Y10	Z10	X11	Y11	Z11	X12	Y12	Z12	X13	Y13	Z13	X14	Y14	Z14	X15	Y15	Z15	X16	Y16	Z16	X17	Y17	Z17	X18	Y18	Z18	X19	Y19	Z19	X20	Y20	Z20	X21	Y21	Z21	X22	Y22	Z22	X23	Y23	Z23	X24	Y24	Z24	X25	Y25	Z25	X26	Y26	Z26	X27	Y27	Z27	X28	Y28	Z28	X29	Y29	Z29	X30	Y30	Z30	X31	Y31	Z31	X32	Y32	Z32	X33	Y33	Z33	X34	Y34	Z34	X35	Y35	Z35	X36	Y36	Z36	X37	Y37	Z37	X38	Y38	Z38	X39	Y39	Z39	X40	Y40	Z40	X41	Y41	Z41	X42	Y42	Z42	X43	Y43	Z43	X44	Y44	Z44	X45	Y45	Z45	X46	Y46	Z46	X47	Y47	Z47	X48	Y48	Z48	X49	Y49	Z49	X50	Y50	Z50	X51	Y51	Z51	X52	Y52	Z52	X53	Y53	Z53	X54	Y54	Z54	X55	Y55	Z55	X56	Y56	Z56	X57	Y57	Z57	X58	Y58	Z58	X59	Y59	Z59	X60	Y60	Z60	X61	Y61	Z61	X62	Y62	Z62	X63	Y63	Z63	X64	Y64	Z64	X65	Y65	Z65	X66	Y66	Z66	X67	Y67	Z67	X68	Y68	Z68	X69	Y69	Z69	X70	Y70	Z70	X71	Y71	Z71	X72	Y72	Z72	

229	1.9	81.20300000000043	893.81699	129.612	34.09697000000051	835.2363800000002	74.98180000000002	2.885059999999612	418.36055	47.78685999999999	122.43656999999985	135.99463	-189.2377	95.65068000000065	-0.5485100000000003	-58.17628	136.42252000000008	925.4686700000001	199.51668	6.479099999999562	535.64214	280.65040000000005	-104.48876999999993	105.45751999999999	299.18175999999994	-243.20154999999977	16.35478	202.44460000000004	55.98073000000022	1016.4830199999999	60.56895999999999	8.518709999999373	1086.85122	13.439140000000002	-47.26082999999926	1156.1262100000001	-34.73369000000001	-110.19286999999986	1215.6565	-78.79108	-178.05195000000003	1279.2239800000002	-125.05637	-239.9884600000005	1338.4672499999997	-164.11642000000003	-383.3256799999999	1408.36689	-161.16166	-175.4037500000004	1233.6281399999998	-114.14715	-264.12364999999954	1148.0931400000004	-81.85438999999997	-181.94269000000077	1166.09481	169.74624	-345.79684	1132.44368	368.52764	-356.90164000000004	1155.1881400000002	399.45166000000006	-346.2824099999998	1160.02881	434.3809800000001	-338.71332000000075	1158.9387	458.79450999999995	-332.25457000000006	1154.21353	479.22295	-359.6647300000004	1141.9314199999997	402.79336	-369.95993	1137.0756199999998	454.6840000000001	-364.47850000000017	1130.23228	489.7996099999999	-353.47209999999995	1128.0870599999998	506.98590999999993	-339.2366099999999	1127.73426	518.0777500000002	-358.2324699999999	1129.8021600000002	401.18137	-367.50298999999995	1118.50623	450.92229	-361.2834899999998	1109.44977	488.85815	-347.8903600000003	1106.09915	509.4093300000001	-332.2585799999997	1105.3424299999997	521.45662	-357.0871699999998	1121.3618	398.73933	-364.7795699999997	1103.92631	441.25874	-359.09915	1094.4262900000003	473.85445000000004	-346.0426000000007	1090.3412699999997	493.42844	-331.2794699999995	1089.22551	504.63781	-354.4501799999998	1111.7347500000003	394.25591999999995	-360.31715000000077	1089.82335	430.57770999999997	-355.32917	1079.7859499999997	455.76137000000006	-345.5931499999997	1075.63078	469.59475000000003	-332.39312000000064	1073.96586	479.26893	-135.7221500000005	1283.04659	-103.58412999999999	-54.431399999999485	1382.00313	-91.7485	-105.27571999999964	1239.2741099999996	125.28835000000001	-262.96709999999985	1127.4929199999997	298.86015	-290.30249000000003	1151.65358	315.16843000000006	-326.7438599999996	1151.22872	320.4697	-351.43358999999964	1146.70154	325.41157999999996	-371.4277400000001	1139.3076699999997	330.60082	-289.66283999999996	1140.1441699999998	323.02123000000006	-330.8603800000001	1137.53922	356.46051	-363.1683200000007	1128.02422	369.71366	-382.61502999999993	1121.5298900000003	368.84154	-398.27995999999985	1115.76408	361.97365	-286.53049999999985	1128.3603000000003	324.78121999999996	-325.0180099999998	1119.4478000000001	358.35171999999994	-359.7300099999993	1107.50902	372.92479000000003	-382.93147000000044	1098.9271599999997	371.92597000000006	-399.9452000000001	1092.2553200000002	364.43717999999996	-283.2329600000003	1120.1515000000004	325.28786999999994	-314.7656799999995	1105.18466	356.15453	-344.40611999999965	1093.2018400000002	368.91597999999993	-366.45933999999943	1084.08652	367.9841200000001	-382.30184999999983	1077.41647	360.95773	-278.50072	1110.3717600000002	323.98497	-304.4066899999998	1090.78213	351.89431	-327.04543999999987	1078.7914500000002	362.07058000000006	-342.6008700000002	1070.98402	361.37027	-356.3295799999996	1064.4086	355.13415999999995
230	1.908	81.20300000000043	893.81699	129.612	33.67171999999937	835.2434900000001	75.34372000000002	4.185279999999693	418.34891999999996	46.55699	123.02390000000014	136.24994	-191.14295999999996	96.68139999999948	-0.9412900000000004	-60.66978000000001	136.85119000000032	925.47339	199.17378	6.247459999999592	535.81183	280.03931	-104.68018000000029	105.62442000000001	298.74614999999994	-242.77973999999995	16.018250000000002	201.59753	55.967649999999594	1016.3989	60.424470000000014	8.452379999999721	1086.7487700000004	13.32096	-47.39152000000013	1156.0112500000002	-34.79527	-110.39588999999978	1215.54085	-78.75007999999998	-178.33460000000014	1279.1120799999999	-124.89318000000002	-240.3409100000008	1338.36355	-163.82986999999997	-383.55948999999964	1408.4725999999998	-160.16791	-175.75522	1233.5543899999998	-113.80947999999998	-264.86745000000064	1149.10105	-79.79593999999997	-181.2225699999999	1168.5578799999998	171.21324999999996	-344.78638000000046	1136.37295	370.47598	-355.88652	1159.1144900000002	401.40382	-345.26040999999987	1163.9536599999997	436.33125	-337.68616999999995	1162.8625200000001	460.74314000000004	-331.2228100000002	1158.1365	481.16991999999993	-358.6478899999993	1145.85733	404.74520999999993	-368.9319400000004	1140.9973	456.63767000000007	-363.4426799999992	1134.1520399999997	491.75169	-352.4325399999998	1132.0065399999999	508.9355499999999	-338.19473000000016	1131.6540999999997	520.0244100000001	-357.21501999999964	1133.7283	403.1321099999999	-366.47433999999976	1122.42835	452.87421000000006	-360.2462599999999	1113.36985	490.80818000000005	-346.8485900000005	1110.01889	511.35635	-331.21426000000065	1109.2625899999998	523.4003499999999	-356.0695799999994	1125.2881899999998	400.68928000000005	-363.7518	1107.84928	443.2091300000001	-358.06386999999995	1098.34753	475.80303000000004	-345.00292999999965	1094.26222	495.37404	-330.23739000000023	1093.14687	506.5802700000001	-353.43277000000035	1115.66164	396.20467999999994	-359.29049999999916	1093.74737	432.52624000000003	-354.2965100000001	1083.70868	457.70819000000006	-344.55729000000065	1079.5533500000001	471.53928	-331.35511999999926	1077.88881	481.21059999999994	-135.87240999999995	1282.90117	-103.67795	-53.916519999999764	1381.51277	-93.69552000000002	-101.72037999999975	1241.6893	125.90844000000001	-258.85120000000006	1135.76095	303.61005999999986	-285.7700299999997	1160.6769899999997	319.46846000000005	-322.1646700000001	1160.81282	325.09596	-346.85743999999977	1156.7053600000002	330.37764	-366.8845599999995	1149.68638	335.9465	-285.18695000000025	1149.3859500000003	327.63635	-326.1080899999997	1148.1858999999997	361.49234	-358.39860000000044	1139.4121599999999	375.28829	-377.9229500000001	1133.1160700000003	374.76835000000005	-393.7118300000002	1127.33721	368.20186	-282.16929999999957	1137.62145	329.7001500000001	-320.4492200000004	1130.08981	363.8413600000001	-355.15844000000016	1118.9575899999998	379.04579	-378.46137	1110.6138	378.4905899999999	-395.6145200000001	1103.92714	371.34069999999997	-278.9582499999997	1129.3933599999998	330.40905999999995	-310.3753200000001	1115.6557	361.95765	-340.03030000000035	1104.37134	375.3084300000001	-362.1903999999995	1095.4832299999998	374.8252100000001	-378.1682600000004	1088.7980999999997	368.1273	-274.3462900000004	1119.5280699999998	329.34098	-300.2148900000002	1101.02318	358.01480999999995	-322.89224000000013	1089.5793100000003	368.72094000000004	-338.53867999999966	1081.9315700000002	368.37588	-352.3947900000003	1075.33932	362.4468800000001
231	1.917	81.20300000000043	893.81699	129.612	32.906520000000455	835.2897699999999	75.97303	5.198309999999765	418.3931099999999	45.49936999999999	123.3126199999997	136.42372	-192.71479	97.36361000000034	-1.2004099999999998	-62.61922	137.6285199999993	925.4397099999999	198.56019000000003	6.353840000000673	535.95012	279.16733	-104.52052000000003	105.76320999999999	298.19870000000003	-241.98844999999983	15.67237	200.60352999999998	55.91593000000012	1016.28761	60.2465	8.31576000000041	1086.69624	13.316819999999998	-47.62503000000015	1156.05271	-34.550820000000016	-110.73206000000027	1215.72712	-78.16066	-178.78125999999975	1279.4470399999998	-123.93437	-240.8528099999994	1338.85639	-162.525	-383.8857200000002	1409.30525	-158.18978999999996	-176.35259999999926	1233.9363	-112.62602000000001	-265.81804999999986	1150.5150100000003	-77.02971	-183.1249199999993	1169.06037	174.36354	-346.81257000000005	1136.29188	373.42937000000006	-358.4088899999997	1158.6303500000001	404.4687	-348.0363900000002	1163.3603499999997	439.48720000000003	-340.5729600000004	1162.1957	463.92981	-334.14572000000044	1157.41056	484.35422	-360.99024999999983	1145.30869	407.69546999999994	-371.4688699999997	1139.9018700000001	459.49483	-366.05998999999974	1132.8715400000003	494.58475000000004	-355.1081100000001	1130.7586199999998	511.8098199999999	-340.92409000000043	1130.5327199999997	522.9707	-359.36906	1133.21484	405.99860000000007	-368.71631999999954	1121.4005599999998	455.60456	-362.55039000000033	1112.1467700000003	493.5015300000001	-349.21073999999953	1108.83831	514.09428	-333.62930999999935	1108.2220299999994	526.21459	-358.08578000000034	1124.81147	403.49830999999995	-365.7276299999994	1106.93744	445.84439	-360.0676199999998	1097.27311	478.3953199999999	-347.04871	1093.2328500000003	498.0036400000001	-332.3263100000004	1092.25108	509.27892000000014	-355.2831299999998	1115.25946	398.95526	-361.0022399999998	1092.9849099999997	435.07921999999996	-355.9898099999991	1082.82987	460.21080000000006	-346.26152	1078.71409	474.06138999999996	-333.0862099999995	1077.17174	483.78944	-136.07475000000068	1283.0999500000003	-103.19090000000001	-53.58512000000064	1381.4253099999999	-94.92965000000001	-98.33118000000013	1244.14185	126.90982000000001	-254.67479999999978	1143.9311899999998	308.57784000000004	-281.0074800000002	1169.69364	324.06355999999994	-317.3266100000001	1170.567	330.0980799999999	-342.0173300000006	1167.00114	335.76846000000006	-362.08597999999984	1160.4576399999999	341.75139	-280.5069000000003	1158.61731	332.52561000000003	-321.0402700000004	1158.9839300000003	366.8639299999999	-353.30076999999983	1151.1044800000002	381.25692000000004	-372.92702999999983	1145.1124400000003	381.12847	-388.88158999999996	1139.41531	374.89973	-277.6516099999999	1146.86512	334.8713	-315.6410599999999	1140.86827	369.63536	-350.34051999999974	1130.7082	385.52723999999995	-373.7774300000001	1122.7294600000002	385.46162000000004	-391.11722999999984	1116.1313700000003	378.68968000000007	-274.5629800000006	1138.60823	335.76519999999994	-305.8196200000002	1126.22832	368.02708999999993	-335.4900600000001	1115.7850599999997	382.01284	-357.7921299999998	1107.2457600000002	382.02087000000006	-373.9515199999996	1100.6423300000001	375.68732	-270.12055000000055	1128.64479	334.9110800000001	-295.9390600000006	1111.33356	364.36492999999996	-318.66690000000017	1100.5475499999998	375.63226	-334.43532999999934	1093.14665	375.67104000000006	-348.46286000000055	1086.62242	370.07948999999996
232	1.925	81.20300000000043	893.81699	129.612	32.696170000000166	835.3099000000002	76.14115000000001	6.069180000000415	418.41071	44.75188	123.50433000000066	136.35699	-193.69812	97.86482999999953	-1.4305900000000005	-63.71423999999999	137.8434300000008	925.4211	198.39230999999998	5.944309999999859	536.1177300000002	278.87956	-104.92374999999993	105.94492	298.2632	-241.81656999999996	15.378440000000001	200.30057	55.89593999999943	1016.2660400000001	60.215720000000005	7.954529999999977	1086.6882600000001	13.655229999999996	-48.365679999999884	1156.07379	-33.72287000000001	-111.82861000000048	1215.8269899999996	-76.70382000000001	-180.24921000000086	1279.6073600000002	-121.83519999999999	-242.41129	1339.3273899999997	-159.79542	-385.37950999999975	1409.8936999999999	-155.24177	-178.05977000000075	1234.2554	-109.85977	-267.84176000000025	1151.8294500000002	-72.77290000000002	-177.29608999999982	1178.08891	175.20406	-340.2668999999996	1148.5417999999997	375.3592699999999	-346.55357000000004	1174.72811	404.88344000000006	-333.6590299999998	1180.4120299999997	438.90816000000007	-325.1259799999998	1179.9470899999997	463.02186000000006	-318.39447999999993	1175.7755200000001	483.48277	-350.9733100000003	1162.26602	409.3223899999999	-359.28343999999925	1162.5402800000002	461.79214000000013	-353.0926100000006	1157.4353299999998	497.08516	-341.6625899999999	1154.93653	513.9440499999998	-327.0882099999999	1153.32356	524.46965	-351.3298799999993	1149.97429	408.57742999999994	-359.63162999999986	1143.5947	459.35225	-352.8813399999999	1136.3948100000002	497.5939399999999	-339.0938900000001	1132.5982199999999	517.80397	-323.14806000000044	1130.45323	529.2578900000001	-351.4958999999999	1141.3080999999997	406.73775	-359.4491400000006	1128.14072	450.71996999999993	-353.5563400000001	1120.20966	483.69528	-340.2523200000005	1115.6683300000002	503.0002400000001	-325.25688999999966	1113.23485	513.68014	-350.4526800000003	1131.11563	402.89584	-357.53020000000015	1112.83866	440.97031	-352.7614599999997	1103.96207	466.62788	-343.03326000000015	1099.42785	480.34725000000003	-329.7358199999999	1096.5690400000003	489.5996999999999	-137.01132999999936	1283.0880000000002	-102.19209000000001	-54.156309999999394	1381.23627	-95.66327999999999	-96.04439999999977	1246.49587	128.28341	-251.70906000000014	1151.8631899999998	313.49126	-277.3450899999998	1178.46032	328.7329199999999	-313.55498999999963	1180.15195	335.23208	-338.2265299999999	1177.17979	341.3133	-358.3278700000001	1171.1516300000003	347.7133799999999	-276.93204999999944	1167.5715499999997	337.4395999999999	-316.9729899999993	1169.4785	372.30067999999994	-349.1712899999993	1162.53476	387.3019499999999	-368.90470000000005	1156.91075	387.57421	-385.04631000000063	1151.3740700000003	381.69233999999994	-274.26198999999997	1155.8241499999997	340.01605000000006	-311.8712400000004	1151.3323100000002	375.41473999999994	-346.52922000000035	1142.1887599999998	391.99941	-370.10805999999957	1134.6518400000002	392.4311799999999	-387.6586699999998	1128.22825	386.04557	-271.31421000000046	1147.53318	341.05782	-302.34486000000015	1136.47787	374.01154	-332.0067399999998	1126.91358	388.6298700000001	-354.4603699999998	1118.7967199999998	389.13291	-370.82492	1112.3556	383.16984	-267.0686600000008	1137.47129	340.37323000000004	-292.7924700000003	1121.3209700000002	370.56025	-315.55753000000004	1111.22205	382.37592	-331.45782000000054	1104.1211900000003	382.79598999999996	-345.67934999999943	1097.7360700000002	377.5442499999999
